PathFileType  4	(X/Y/Z) C:\Users\15086\Documents\GitHub\mocap-processing\NordTesting\KristenNordTest\
DataRate	CameraRate	NumFrames	NumMarkers	Units	OrigDataRate	OrigDataStartFrame	OrigNumFrames
  200.0		  200.0		   5		     52		 mm	  200.0	      1081	   2882
Frame#	Time	C7			R_Shoulder			L_Shoulder			Sternum			R_humerus			R_elbow_med			R_elbow_lat			R_forearm			R_wrist_radius			R_wrist_ulna			L_humerus			L_elbow_med			L_elbow_lat			L_forearm			L_wrist_radius			L_wrist_ulna			r.ASIS			r.PSIS			r_IC			L.ASIS			L.PSIS			l_IC			r_thigh1			r_thigh2			r_thigh3			r_thigh4			r_thigh5			r_knee			r_mknee			r_shank_antsup			r_sh2			r_sh3			r_sh4			r_ankle			r_mankle			r_calc			r_5meta			r_toe			L_thigh1			L_thigh2			L_thigh3			L_thigh4			L_knee			L_mknee			L_shank_antsup			L_sh2			L_sh3			L_ankle			L_mankle			L_calc			L_5meta			L_toe			
		X1	Y1	Z1	X2	Y2	Z2	X3	Y3	Z3	X4	Y4	Z4	X5	Y5	Z5	X6	Y6	Z6	X7	Y7	Z7	X8	Y8	Z8	X9	Y9	Z9	X10	Y10	Z10	X11	Y11	Z11	X12	Y12	Z12	X13	Y13	Z13	X14	Y14	Z14	X15	Y15	Z15	X16	Y16	Z16	X17	Y17	Z17	X18	Y18	Z18	X19	Y19	Z19	X20	Y20	Z20	X21	Y21	Z21	X22	Y22	Z22	X23	Y23	Z23	X24	Y24	Z24	X25	Y25	Z25	X26	Y26	Z26	X27	Y27	Z27	X28	Y28	Z28	X29	Y29	Z29	X30	Y30	Z30	X31	Y31	Z31	X32	Y32	Z32	X33	Y33	Z33	X34	Y34	Z34	X35	Y35	Z35	X36	Y36	Z36	X37	Y37	Z37	X38	Y38	Z38	X39	Y39	Z39	X40	Y40	Z40	X41	Y41	Z41	X42	Y42	Z42	X43	Y43	Z43	X44	Y44	Z44	X45	Y45	Z45	X46	Y46	Z46	X47	Y47	Z47	X48	Y48	Z48	X49	Y49	Z49	X50	Y50	Z50	X51	Y51	Z51	X52	Y52	Z52	

1081	5.40000	1199.367	1243.702	-597.743	1319.038	1233.272	-642.086	1069.492	1246.437	-645.486	1196.172	1170.364	-716.672	1494.781	1223.745	-610.006	1631.534	1145.320	-622.903	1623.658	1202.463	-568.342	1617.453	1301.159	-654.565	1588.909	1357.135	-756.643	1627.507	1378.566	-735.501	866.989	1228.754	-618.838	753.858	1145.777	-648.356	749.131	1198.166	-591.510	791.889	1306.334	-686.380	840.134	1352.314	-760.045	785.642	1368.446	-760.187	1308.881	719.706	-573.315	1260.541	856.790	-439.614	1343.135	827.219	-548.672	1070.441	716.979	-561.590	1145.261	848.961	-435.974	1046.655	813.229	-542.451	1381.080	502.480	-464.307	1379.391	393.867	-424.613	1393.624	383.833	-371.158	1388.748	541.863	-363.886	1372.949	429.507	-325.733	1380.330	308.011	-352.330	1254.320	319.911	-334.258	1395.795	308.828	-223.060	1380.867	317.258	-103.541	1395.984	385.209	-226.042	1385.172	399.644	-112.981	1366.432	372.835	62.092	1288.680	348.307	50.679	1309.985	433.190	83.249	1384.699	283.011	145.900	1347.747	228.778	127.662	1001.663	498.318	-455.045	1005.879	367.577	-405.325	1006.230	545.196	-344.355	1013.519	415.902	-299.793	996.573	326.272	-319.481	1123.335	305.785	-318.366	982.039	319.000	-207.647	999.731	408.445	-219.453	1012.028	412.361	-97.251	1022.970	389.378	88.003	1091.165	334.449	60.973	1076.038	433.589	96.264	1012.669	275.059	171.961	1049.327	218.454	144.308
1082	5.40500	1199.423	1243.638	-597.973	1319.104	1233.196	-642.330	1069.534	1246.354	-645.723	1196.224	1170.267	-716.845	1494.818	1223.692	-610.264	1631.588	1145.268	-623.097	1623.734	1202.479	-568.561	1617.478	1301.089	-654.885	1588.934	1356.915	-757.023	1627.530	1378.427	-735.882	867.023	1228.659	-619.096	753.897	1145.627	-648.611	749.141	1198.005	-591.745	791.914	1306.161	-686.674	840.114	1352.183	-760.318	785.632	1368.254	-760.500	1308.912	719.608	-573.352	1260.580	856.777	-439.699	1343.202	827.154	-548.740	1070.452	716.933	-561.643	1145.323	848.925	-436.084	1046.695	813.188	-542.589	1381.061	502.367	-464.272	1379.428	393.843	-424.550	1393.633	383.807	-371.112	1388.737	541.833	-363.875	1372.949	429.504	-325.708	1380.334	307.994	-352.319	1254.344	319.892	-334.258	1395.791	308.821	-223.014	1380.830	317.270	-103.512	1396.022	385.193	-226.053	1385.135	399.637	-112.947	1366.377	372.860	62.104	1288.605	348.274	50.712	1309.947	433.193	83.255	1384.562	283.066	145.946	1347.675	228.816	127.716	1001.685	498.275	-455.057	1005.906	367.533	-405.317	1006.238	545.185	-344.407	1013.510	415.910	-299.830	996.226	326.251	-319.410	1123.358	305.809	-318.370	982.005	319.031	-207.611	999.734	408.466	-219.425	1011.988	412.350	-97.314	1022.913	389.376	87.997	1091.129	334.430	60.932	1075.994	433.569	96.255	1012.568	275.054	171.951	1049.211	218.457	144.320
1083	5.41000	1199.444	1243.600	-598.161	1320.026	1233.446	-642.361	1070.151	1246.627	-645.864	1196.306	1170.173	-717.022	1494.852	1223.632	-610.490	1631.632	1145.222	-623.283	1623.777	1202.463	-568.798	1617.552	1300.917	-655.213	1588.981	1356.759	-757.386	1627.521	1378.296	-736.254	867.104	1228.488	-619.356	753.962	1145.473	-648.878	749.204	1197.859	-591.999	791.937	1305.971	-686.981	840.134	1352.016	-760.560	785.651	1368.092	-760.805	1308.995	719.556	-573.420	1260.621	856.728	-439.810	1343.267	827.081	-548.804	1070.566	716.763	-561.897	1145.345	848.931	-436.177	1046.742	813.143	-542.710	1381.110	502.465	-464.289	1379.441	393.826	-424.576	1393.613	383.818	-371.097	1388.735	541.808	-363.851	1372.948	429.518	-325.677	1380.379	307.974	-352.306	1254.331	319.870	-334.236	1395.724	308.833	-222.999	1380.064	317.254	-103.957	1395.995	385.166	-225.996	1385.105	399.607	-112.908	1366.320	372.867	62.152	1288.498	348.324	50.711	1309.816	433.217	83.278	1384.413	283.091	146.015	1347.533	228.828	127.812	1001.708	498.273	-455.118	1005.927	367.502	-405.335	1006.222	545.188	-344.515	1013.565	415.803	-299.731	996.586	326.266	-319.469	1123.344	305.801	-318.357	982.028	318.949	-207.702	999.688	408.465	-219.456	1011.870	412.414	-97.196	1022.864	389.403	87.988	1091.093	334.395	60.972	1075.957	433.579	96.271	1012.476	275.077	171.949	1049.065	218.454	144.303
1084	5.41500	1199.493	1243.535	-598.367	1319.235	1233.080	-642.751	1069.627	1246.180	-646.216	1196.343	1170.079	-717.209	1494.926	1223.569	-610.745	1631.686	1145.182	-623.471	1623.917	1202.366	-569.262	1617.613	1300.815	-655.511	1589.021	1356.579	-757.765	1627.435	1378.080	-736.612	867.167	1228.364	-619.589	753.643	1145.556	-648.885	749.273	1197.717	-592.247	791.938	1305.900	-687.255	840.157	1351.827	-760.874	785.625	1367.981	-761.101	1309.060	719.479	-573.461	1260.612	856.748	-439.896	1343.313	827.010	-548.856	1070.614	716.668	-561.986	1145.350	848.907	-436.315	1046.776	813.087	-542.860	1381.146	502.408	-464.240	1379.442	393.828	-424.539	1393.641	383.795	-371.056	1388.734	541.832	-363.865	1372.956	429.521	-325.668	1380.377	307.979	-352.281	1254.322	319.871	-334.228	1395.721	308.825	-222.944	1380.706	317.212	-103.498	1395.948	385.209	-225.931	1385.013	399.632	-112.846	1366.213	372.852	62.167	1287.267	348.241	50.635	1309.689	433.247	83.292	1384.274	283.048	146.070	1347.398	228.779	127.895	1001.752	498.233	-455.225	1005.891	367.501	-405.341	1006.275	545.201	-344.540	1013.516	415.947	-299.872	996.581	326.299	-319.475	1123.355	305.789	-318.413	981.991	319.103	-207.629	999.637	408.474	-219.431	1011.920	412.374	-97.298	1022.823	389.395	87.988	1091.116	334.373	60.906	1075.945	433.617	96.278	1012.386	275.063	171.931	1048.985	218.533	144.299
1085	5.42000	1199.584	1243.447	-598.622	1319.301	1232.993	-642.974	1069.685	1246.099	-646.447	1196.429	1169.981	-717.406	1494.975	1223.516	-610.972	1631.737	1145.126	-623.617	1623.972	1202.340	-569.474	1617.571	1300.828	-655.754	1589.054	1356.442	-758.113	1627.509	1378.041	-736.942	867.188	1228.277	-619.834	753.713	1145.406	-649.114	749.333	1197.587	-592.506	791.963	1305.773	-687.524	840.136	1351.698	-761.148	785.632	1367.828	-761.368	1309.061	719.552	-573.554	1260.636	856.730	-440.021	1343.365	826.942	-548.948	1070.678	716.619	-562.158	1145.401	848.853	-436.454	1046.831	813.041	-543.003	1381.224	502.374	-464.230	1379.492	393.844	-424.463	1393.683	383.803	-371.021	1388.700	541.799	-363.860	1372.930	429.528	-325.640	1380.337	307.961	-352.255	1254.338	319.837	-334.245	1395.736	308.837	-222.912	1380.594	317.206	-103.468	1395.964	385.192	-225.928	1384.951	399.631	-112.795	1366.134	372.850	62.195	1287.126	348.252	50.681	1309.605	433.222	83.332	1384.094	283.018	146.142	1347.261	228.789	127.925	1002.073	497.942	-454.704	1005.919	367.493	-405.381	1006.309	545.167	-344.591	1013.511	415.964	-299.922	996.606	326.327	-319.482	1123.334	305.788	-318.347	981.982	319.124	-207.655	999.653	408.470	-219.441	1011.919	412.419	-97.304	1022.788	389.420	87.967	1091.015	334.413	61.014	1075.895	433.634	96.278	1012.345	275.080	171.922	1048.874	218.565	144.307
